<svg width="154" height="92" xmlns="http://www.w3.org/2000/svg" preserveAspectRatio="xMidYMid meet" version="1.0">
 <metadata>Created by potrace 1.10, written by Peter Selinger 2001-2011</metadata>

 <g>
  <title>Layer 1</title>
  <g id="svg_26">
   <path fill="#4f46e5" id="svg_2" d="m74.39999,0.75689c-2.5,1.7 -10.1,16.2 -11,20.9c-0.8,4.4 -2.2,4.9 -7.5,2.5c-10.2,-4.5 -19.4,-6.8 -22.9,-5.7c-3.1,1 -2.6,4 2.9,18c4.5,11.7 13.7,20.1 23.8,21.9c3.9,0.7 6.3,-0.1 6.3,-2c0,-1.6 -2.4,-2.8 -8.8,-4.4c-2.9,-0.8 -5.8,-2.6 -8.7,-5.5c-4.2,-4.1 -8.5,-11.7 -8.5,-14.9c0,-0.8 -0.4,-1.8 -1,-2.1c-0.5,-0.3 -1,-1.5 -1,-2.6c0,-3.2 7.2,-2.2 16.7,2.3c1.6,0.8 2.6,0.8 3.6,0c2,-1.7 2.7,-0.5 2.7,4.7c0.1,7.2 3.3,15 8.1,19.8c5.7,5.7 8.5,5.7 14.2,0c10.6,-10.6 10.3,-28.1 -0.6,-46.2c-4.5,-7.4 -5.8,-8.5 -8.3,-6.7zm7.1,15.9c3.7,7.3 3.9,8.3 4,17c0,8.6 -0.2,9.4 -3,13.4c-4.2,5.9 -5.7,6.7 -8.9,4.6c-4.7,-3.1 -7,-9.2 -7,-18.2c0,-5.4 0.5,-9 1.6,-11c0.9,-1.7 2.4,-4.8 3.4,-7c4.1,-8.7 5,-8.6 9.9,1.2z"/>
   <path fill="#4f46e5" id="svg_3" d="m73.59999,21.45689c-0.3,0.9 -0.6,6.5 -0.6,12.5c0,8.3 0.3,11 1.5,12c1.2,1 1.8,1 3,0c1.3,-1.1 1.5,-3.5 1.3,-13.4c-0.3,-11.5 -0.4,-12.1 -2.4,-12.4c-1.3,-0.2 -2.4,0.4 -2.8,1.3z"/>
   <path fill="#4f46e5" id="svg_4" d="m113.99999,18.65689c-3.8,0.5 -10,2.4 -15.2,4.6c-3.8,1.5 -4.8,2.4 -4.8,4.3c0,1.3 0.3,2.4 0.8,2.4c1.1,0 7.5,-2.4 8.9,-3.3c0.7,-0.4 3.5,-1.1 6.3,-1.4c4.5,-0.5 5,-0.4 5,1.3c0,1.1 -0.6,2.8 -1.4,3.9c-0.7,1.1 -1.6,3.1 -1.9,4.5c-1,4.2 -6.8,12 -10.6,14.5c-2,1.3 -5.2,2.6 -7.1,3c-1.9,0.4 -4.5,1.4 -5.8,2.2c-1.9,1.2 -2.1,1.7 -1.1,2.9c1.4,1.7 7.3,1.1 11.7,-1.2c1.5,-0.8 3.2,-1.4 3.7,-1.4c1.8,0 9,-8.1 12.1,-13.5c4.3,-7.4 7.9,-20.2 6.2,-22.2c-1,-1.3 -2,-1.4 -6.8,-0.6z"/>
   <path fill="#4f46e5" id="svg_17" d="m47.49999,33.95689c-0.9,1.4 0.8,4 4.9,7.7c4,3.7 5.1,4 6,1.7c0.4,-1 -0.8,-3.2 -3.2,-5.9c-3.6,-4.3 -6.4,-5.6 -7.7,-3.5z"/>
   <path fill="#4f46e5" id="svg_18" d="m97.99999,36.55689c-3.8,3.5 -5.3,7.5 -3.1,8.8c0.4,0.3 3.2,-1.7 6,-4.5c4.2,-4.1 5,-5.3 4,-6.5c-1.7,-2 -2.5,-1.8 -6.9,2.2z"/>
   <path fill="#4f46e5" id="svg_19" d="m118.19999,45.15689c-2.2,2.2 -1.2,3.5 4.8,6.1c3.6,1.6 6,3.3 6,4.2c0,1.7 -5.6,5.5 -8.2,5.5c-1.9,0 -4.2,3.5 -3.3,5c1.3,2.1 6.9,0.3 13.2,-4.1c5.7,-4 4.4,-11 -2.8,-14.5c-6.3,-3.1 -8.3,-3.6 -9.7,-2.2z"/>
   <path fill="#4f46e5" id="svg_20" d="m26.49999,47.05689c-7.7,4 -9.5,9.1 -4.9,13.4c9.4,8.7 36.4,12.8 70,10.5c15.4,-1.1 18.9,-1.6 20.7,-3.1c2,-1.8 2.1,-2 0.5,-3.2c-1.3,-1 -3.1,-1.1 -7,-0.5c-15,2.4 -32.2,3.2 -43.6,2c-15.5,-1.5 -30.1,-4.5 -35,-7.1c-3.2,-1.7 -2.5,-5.2 1.3,-7c6.3,-2.8 7.7,-4.1 6.4,-5.7c-1.6,-1.9 -3.7,-1.8 -8.4,0.7z"/>
   <path fill="#4f46e5" id="svg_21" d="m138.69999,54.35689c-0.3,0.7 -0.3,3.1 0,5.3c0.5,3.7 0.2,4.3 -2.9,6.6c-3.9,3 -11.2,5.8 -21.8,8.3c-6.3,1.5 -12.6,1.8 -38,1.9c-16.8,0 -30.4,0.4 -30.3,0.8c0.1,0.4 0.3,1.2 0.5,1.8c1.1,3.3 46.1,3.6 65.8,0.5c24.3,-3.8 35.9,-12.9 30.8,-24.1c-1.2,-2.7 -3.3,-3.3 -4.1,-1.1z"/>
   <path fill="#4f46e5" id="svg_22" d="m10.69999,54.55689c-0.4,0.4 -0.7,3 -0.7,5.9c0,4.4 0.4,5.6 3.1,8.3c3.9,4 11.1,7.3 16.4,7.5c6.4,0.3 5,-2.2 -3,-5.5c-9.7,-4 -11.7,-6.1 -11.3,-11.8c0.3,-3.9 0,-4.5 -1.7,-4.8c-1.2,-0.2 -2.4,0 -2.8,0.4z"/>
   <path fill="#4f46e5" id="svg_23" d="m1.19999,58.15689c-0.7,0.7 -1.2,3.7 -1.2,6.8c0,4.7 0.5,6.3 3.1,9.8c1.7,2.3 3.5,4.2 3.9,4.2c0.5,0 1.5,0.6 2.2,1.2c1.7,1.6 7.5,4.5 10.8,5.3c1.4,0.3 3.4,1 4.5,1.5c1.1,0.5 5.6,1.6 10,2.5c10.3,2.1 58.6,3.4 63.5,1.7c1.8,-0.7 3.9,-0.8 4.6,-0.4c2.4,1.3 19.1,-1.3 29.4,-4.7c14.9,-4.9 22,-11.7 22,-20.9c0,-3.6 -0.5,-5.4 -1.9,-6.6c-2.9,-2.6 -4.1,-1.1 -4.1,5c0,3.1 -0.4,6.4 -1,7.4c-3,5.6 -20.9,12.7 -34.6,13.7c-5.6,0.4 -8.2,1.1 -9.5,2.4c-1.4,1.4 -2.4,1.7 -4.3,0.9c-1.3,-0.5 -10.4,-0.9 -20.3,-0.8c-34.8,0.1 -60.2,-5 -69,-13.9c-4.5,-4.4 -5.3,-7.5 -3.2,-11.5c0.9,-1.8 0.8,-2.4 -0.7,-3.5c-2.2,-1.6 -2.7,-1.6 -4.2,-0.1z"/>
   <path fill="#4f46e5" id="svg_24" d="m37.69999,74.65689c-0.4,0.3 -0.7,1.5 -0.7,2.5c0,1.3 0.8,1.8 3,1.8c3.5,0 4.1,-2.3 1.1,-4c-2.3,-1.2 -2.6,-1.2 -3.4,-0.3z"/>
  </g>
 </g>
</svg>