<svg width="752" height="92" xmlns="http://www.w3.org/2000/svg" preserveAspectRatio="xMidYMid meet" version="1.0">
 <metadata>Created by potrace 1.10, written by Peter Selinger 2001-2011</metadata>

 <g>
  <title>Layer 1</title>
  <g id="svg_25">
   <path fill="#4f46e5" id="svg_2" d="m420.17599,0.75688c-2.5,1.7 -10.1,16.2 -11,20.9c-0.8,4.4 -2.2,4.9 -7.5,2.5c-10.2,-4.5 -19.4,-6.8 -22.9,-5.7c-3.1,1 -2.6,4 2.9,18c4.5,11.7 13.7,20.1 23.8,21.9c3.9,0.7 6.3,-0.1 6.3,-2c0,-1.6 -2.4,-2.8 -8.8,-4.4c-2.9,-0.8 -5.8,-2.6 -8.7,-5.5c-4.2,-4.1 -8.5,-11.7 -8.5,-14.9c0,-0.8 -0.4,-1.8 -1,-2.1c-0.5,-0.3 -1,-1.5 -1,-2.6c0,-3.2 7.2,-2.2 16.7,2.3c1.6,0.8 2.6,0.8 3.6,0c2,-1.7 2.7,-0.5 2.7,4.7c0.1,7.2 3.3,15 8.1,19.8c5.7,5.7 8.5,5.7 14.2,0c10.6,-10.6 10.3,-28.1 -0.6,-46.2c-4.5,-7.4 -5.8,-8.5 -8.3,-6.7zm7.1,15.9c3.7,7.3 3.9,8.3 4,17c0,8.6 -0.2,9.4 -3,13.4c-4.2,5.9 -5.7,6.7 -8.9,4.6c-4.7,-3.1 -7,-9.2 -7,-18.2c0,-5.4 0.5,-9 1.6,-11c0.9,-1.7 2.4,-4.8 3.4,-7c4.1,-8.7 5,-8.6 9.9,1.2z"/>
   <path fill="#4f46e5" id="svg_3" d="m419.37599,21.45688c-0.3,0.9 -0.6,6.5 -0.6,12.5c0,8.3 0.3,11 1.5,12c1.2,1 1.8,1 3,0c1.3,-1.1 1.5,-3.5 1.3,-13.4c-0.3,-11.5 -0.4,-12.1 -2.4,-12.4c-1.3,-0.2 -2.4,0.4 -2.8,1.3z"/>
   <path fill="#4f46e5" id="svg_4" d="m459.77599,18.65688c-3.8,0.5 -10,2.4 -15.2,4.6c-3.8,1.5 -4.8,2.4 -4.8,4.3c0,1.3 0.3,2.4 0.8,2.4c1.1,0 7.5,-2.4 8.9,-3.3c0.7,-0.4 3.5,-1.1 6.3,-1.4c4.5,-0.5 5,-0.4 5,1.3c0,1.1 -0.6,2.8 -1.4,3.9c-0.7,1.1 -1.6,3.1 -1.9,4.5c-1,4.2 -6.8,12 -10.6,14.5c-2,1.3 -5.2,2.6 -7.1,3c-1.9,0.4 -4.5,1.4 -5.8,2.2c-1.9,1.2 -2.1,1.7 -1.1,2.9c1.4,1.7 7.3,1.1 11.7,-1.2c1.5,-0.8 3.2,-1.4 3.7,-1.4c1.8,0 9,-8.1 12.1,-13.5c4.3,-7.4 7.9,-20.2 6.2,-22.2c-1,-1.3 -2,-1.4 -6.8,-0.6z"/>
   <path fill="#4f46e5" id="svg_5" d="m8.57599,23.85688c-5,3.2 -6.8,6.5 -6.8,12.3c0,5 0.3,5.8 3.7,9.1c2,2 4.3,3.7 5.2,3.7c0.9,0 2.5,0.7 3.5,1.5c1.1,0.8 2.8,1.5 3.8,1.5c2.9,0 7.6,2.8 8.3,4.8c1.1,3.7 -0.4,5.2 -5.4,5.2c-5.3,0 -6.6,-0.6 -7.5,-3.7c-0.9,-2.8 -3.1,-3.5 -8,-2.3c-4.8,1.1 -6,2.2 -5.1,4.9c1.5,4.8 5.6,8.1 12.7,10.2c6.9,2.1 7.1,2.1 13,0.3c8.3,-2.5 11.8,-6.7 11.8,-14.4c-0.1,-8.3 -3.5,-11.6 -16.4,-15.6c-7.1,-2.3 -9.3,-4.9 -7,-8.2c1.1,-1.6 2.5,-2.2 5.4,-2.2c3.4,0 4.2,0.4 5.5,3.1c1.5,2.7 2,3 4.8,2.3c6.1,-1.3 7.7,-2.3 7.7,-4.6c-0.1,-2.9 -2.7,-6.1 -6.8,-8.2c-4.4,-2.3 -18.7,-2.1 -22.4,0.3z"/>
   <path fill="#4f46e5" id="svg_6" d="m57.67599,24.65688c-0.6,1.6 -1.5,4.1 -1.9,5.8c-0.5,1.6 -1.8,5.5 -3,8.5c-1.2,3 -2.5,7 -3,8.9c-0.5,1.8 -1.3,3.8 -1.9,4.4c-0.6,0.6 -1.1,2 -1.1,3.2c0,1.1 -0.7,2.9 -1.5,3.9c-0.8,1.1 -1.5,2.9 -1.5,4c0,1.1 -0.7,2.7 -1.6,3.7c-2.9,3.2 -1.1,4.9 4.7,4.4c5.2,-0.4 6.9,-1.5 6.9,-4.6c0,-3.5 3.1,-4.6 11.8,-4.1c7.6,0.4 8.2,0.6 8.2,2.6c0,3.5 1.5,4.8 6.6,5.7c3.6,0.7 5.1,0.6 6.1,-0.4c1.4,-1.4 0.9,-2.6 -5.3,-15c-0.8,-1.6 -1.4,-3.4 -1.4,-4.2c0,-1.3 -5,-13.6 -7.6,-18.8c-0.8,-1.6 -1.4,-3.9 -1.4,-5.1c0,-3.4 -3.1,-5.6 -7.9,-5.6c-3.6,0 -4.3,0.4 -5.2,2.7zm9,19.4c3.1,7.1 2.6,8.3 -3.2,8.7c-4.4,0.3 -4.7,0.2 -4.7,-2.2c0,-1.4 0.4,-2.7 0.9,-3c0.4,-0.3 1.1,-2.4 1.5,-4.6c0.9,-5.4 2.8,-5.1 5.5,1.1z"/>
   <path fill="#4f46e5" id="svg_7" d="m91.97599,46.15688l0.3,24.3l14,0c13.3,-0.1 14.2,-0.2 17.3,-2.5c7.9,-5.8 8.4,-16 1.1,-20.2c-3.7,-2.2 -3.7,-3.9 0.1,-6c2.7,-1.6 3,-2.2 3,-7c-0.1,-10 -5.1,-12.8 -23.5,-12.8l-12.6,0l0.3,24.2zm21.2,-14c2.9,1.2 4,3.8 3.1,6.7c-0.4,1.5 -1.8,2 -5.8,2.3c-5.9,0.5 -7.7,-0.4 -7.7,-3.9c0,-5.8 4.3,-8 10.4,-5.1zm4.1,20.9c1.8,1.9 1.8,2.2 0.3,4.7c-2,3.3 -10.7,5.4 -13.3,3.2c-1.5,-1.2 -2.1,-8 -0.8,-9.3c0.3,-0.4 3.2,-0.7 6.3,-0.7c4.5,0 6.1,0.4 7.5,2.1z"/>
   <path fill="#4f46e5" id="svg_8" d="m147.27599,23.65688c-3.8,2 -6.4,4.7 -8.9,9.3c-3.1,5.4 -2.8,21.8 0.4,27.8c2.8,5.4 6.9,8.4 14.5,10.7c5.6,1.7 6.2,1.7 10.6,0.2c2.6,-1 5.3,-1.7 6.1,-1.7c1.7,0 7.7,-6.3 10.2,-10.8c2.6,-4.7 2.5,-21.6 -0.2,-26.5c-2.4,-4.5 -4.5,-6.6 -9,-8.8c-4.8,-2.5 -19.2,-2.6 -23.7,-0.2zm19,10.5c3.5,3.1 3.5,3.2 3.5,11.9c0,8.6 0,8.8 -3.5,12.5c-3.3,3.5 -3.7,3.6 -8.2,3c-5.9,-0.8 -8.8,-4.1 -9.6,-10.6c-1,-8.1 0.2,-13.1 3.9,-16.8c4.5,-4.4 9.1,-4.4 13.9,0z"/>
   <path fill="#4f46e5" id="svg_9" d="m190.57599,45.15688c-0.2,12.8 0,24 0.4,24.9c0.5,1.2 2,1.5 6,1.4l5.3,-0.2l0,-8.4c0,-8.1 0.7,-10.9 2.5,-10.9c1.8,0 7,5.3 7,7.1c0,4.4 3.9,9.8 8.6,11.9c5.4,2.3 6.7,1.8 8.4,-3.6c1.4,-4.2 0.7,-6.4 -2,-6.4c-1.3,0 -2.4,-1 -3.1,-2.8c-0.6,-1.5 -2.1,-3.9 -3.5,-5.3l-2.5,-2.6l4.6,-4.5c4.1,-4.1 4.5,-5 4.5,-9.4c0,-10.7 -6.1,-14.4 -24.1,-14.4l-11.8,0l-0.3,23.2zm19.4,-13.2c4.3,1.2 6.3,4 5.4,7.6c-0.8,3.2 -3.8,4.6 -8.9,4.2c-4.2,-0.3 -4.2,-0.3 -4.5,-4.5c-0.3,-4.5 1.1,-8.3 3.1,-8.3c0.7,0 2.9,0.5 4.9,1z"/>
   <path fill="#4f46e5" id="svg_10" d="m235.97599,46.55688l0.3,24.6l15.4,0c8.4,0 15.8,-0.5 16.3,-1c0.5,-0.5 0.8,-2.7 0.6,-4.8l-0.3,-3.9l-10.2,-0.3c-9.9,-0.3 -10.3,-0.4 -10.9,-2.6c-0.3,-1.3 -0.4,-3.5 -0.2,-4.7c0.3,-2.3 0.5,-2.4 8.6,-2l8.2,0.3l0,-4.3c0,-6.8 -0.7,-7.2 -8.8,-6.4c-6.6,0.6 -7,0.6 -7.7,-1.4c-0.3,-1.2 -0.3,-3.5 0,-5.2l0.7,-3.1l9.3,0.7c10,0.8 10.3,0.7 10.9,-4.6c0.7,-5.9 0.8,-5.9 -16.5,-5.9l-15.9,0l0.2,24.6z"/>
   <path fill="#4f46e5" id="svg_11" d="m281.57599,23.75688c-5,3.3 -6.8,6.6 -6.8,12.5c0,4.8 0.4,5.8 3.5,9c2,2.1 4.4,3.7 5.3,3.7c0.9,0 2.6,0.7 3.6,1.5c1.1,0.8 2.8,1.5 3.7,1.5c1,0 3.1,0.8 4.8,1.7c2.6,1.5 3.1,2.3 2.9,4.8c-0.3,2.8 -0.6,3 -5,3.3c-4.7,0.3 -4.9,0.2 -8.6,-4.7c-1.7,-2.2 -2,-2.2 -6.2,-1c-6,1.7 -6.5,2.3 -5.1,5.7c1.9,4.6 6.1,7.8 12.6,9.5c9.1,2.4 17.4,0.3 21.9,-5.6c2.1,-2.7 2.6,-4.5 2.6,-8.8c-0.1,-8.2 -3.9,-11.8 -16.3,-15.4c-8,-2.4 -9.9,-4.4 -7.7,-8.6c0.8,-1.4 2.1,-1.9 5,-1.9c3.1,0 4.3,0.6 6.2,3.1c2.4,3 2.5,3 7.2,1.8c2.6,-0.6 5,-1.9 5.3,-2.7c1,-2.5 -2.6,-7.6 -6.6,-9.5c-5.2,-2.4 -18.6,-2.4 -22.3,0.1z"/>
   <path fill="#4f46e5" id="svg_12" d="m532.77599,46.85688l0,24.9l5.8,-0.2l5.7,-0.2l0.3,-7.5l0.3,-7.6l7.4,-0.6c11.7,-0.9 16.4,-5.9 16.5,-17.4c0,-5.2 -0.4,-6.6 -2.6,-9.3c-4.8,-5.7 -8.9,-7 -21.9,-7l-11.5,0l0,24.9zm21.8,-13.1c1.6,1.1 2.2,2.4 2.2,5.1c-0.1,5.4 -2,7.2 -7.7,7.4l-4.8,0.2l-0.3,-5.7c-0.4,-7.7 0.8,-9.9 5.1,-9.1c1.7,0.3 4.2,1.3 5.5,2.1z"/>
   <path fill="#4f46e5" id="svg_13" d="m587.976,23.15688c-0.7,0.7 -1.2,2.3 -1.2,3.7c0,1.5 -0.7,3.5 -1.5,4.5c-0.8,1.1 -1.5,3.1 -1.5,4.5c0,1.4 -0.7,3.5 -1.5,4.5c-0.8,1.1 -1.5,2.8 -1.5,3.9c0,1 -0.6,3.1 -1.4,4.5c-0.8,1.5 -2.1,4.7 -3.1,7.2c-0.9,2.5 -2.6,6.4 -3.8,8.6c-2.6,5.3 -1.8,7.4 2.7,7.4c5.9,0 8.6,-1.5 8.6,-4.9c0,-1.6 0.4,-3.3 1,-3.6c0.5,-0.3 4.6,-0.7 9,-0.9c8.7,-0.3 10.5,0.5 11.2,5.4c0.3,2.1 1,2.6 5.2,3.2c2.8,0.4 5.3,0.5 5.8,0.2c1.3,-0.9 0.9,-5.1 -0.7,-6.4c-0.8,-0.7 -1.5,-2.1 -1.5,-3.2c0,-1.1 -0.6,-3.2 -1.3,-4.6c-0.8,-1.5 -2.1,-4.2 -3,-6c-0.9,-1.9 -1.7,-4 -1.7,-4.9c0,-0.8 -0.7,-2.8 -1.5,-4.4c-0.8,-1.6 -2.2,-4.2 -3,-5.8c-0.8,-1.6 -1.5,-3.7 -1.5,-4.7c0,-0.9 -0.8,-3.5 -1.7,-5.5c-1.7,-3.6 -2.1,-3.8 -6.3,-3.9c-2.6,0 -5.1,0.5 -5.8,1.2zm8.2,20.6c0.5,2.3 1.3,4.2 1.7,4.2c0.5,0 0.9,1.1 0.9,2.5c0,2.3 -0.3,2.5 -5,2.5c-5.6,0 -5.8,-0.4 -3.9,-7.5c2.1,-7.7 4.8,-8.4 6.3,-1.7z"/>
   <path fill="#4f46e5" id="svg_14" d="m627.076,24.05688c-3.5,2.2 -7.3,7.9 -7.3,11c0,5.3 5.8,13.8 9.5,13.9c1.1,0 2.9,0.7 3.9,1.5c1.1,0.8 2.8,1.5 3.8,1.5c1.1,0 3.3,0.7 4.9,1.6c2.5,1.3 3,2 2.7,4.7c-0.3,3 -0.6,3.2 -4.5,3.5c-4.5,0.3 -8.3,-1.1 -8.3,-3.1c0,-2.8 -2,-3.5 -6.8,-2.3c-3.9,1 -4.8,1.6 -5,3.8c-0.5,4.1 5.2,9.1 12.7,11.2c5.9,1.7 6.5,1.7 11.9,0c9.9,-3 13.3,-8.1 11.8,-17.7c-0.6,-3.4 -1.5,-4.8 -4.9,-7.3c-2.3,-1.7 -5.8,-3.4 -7.7,-3.8c-4.6,-0.9 -10.1,-3.7 -11.4,-5.8c-1.6,-2.7 1.8,-5.8 6.6,-5.8c3.1,0 4,0.4 4.8,2.4c1.3,3.4 2.3,3.8 7.4,2.4c4,-1 4.6,-1.6 4.6,-3.8c-0.1,-2.7 -2.1,-5.6 -6,-8.3c-3.8,-2.6 -18.4,-2.4 -22.7,0.4z"/>
   <path fill="#4f46e5" id="svg_15" d="m660.776,26.85688c0,6.1 1.2,7.2 7,6.1c6.1,-1.1 8.4,0.2 7.6,4.3c-0.2,1.8 -0.6,9.9 -0.8,18c-0.2,11.9 0,15 1.1,15.7c2.1,1.2 9.8,1 10.9,-0.3c0.5,-0.7 0.5,-8.9 0.1,-18.7c-0.4,-9.6 -0.5,-17.9 -0.2,-18.3c0.3,-0.5 3.5,-0.7 7,-0.5c6.2,0.3 6.6,0.2 7.5,-2.2c0.5,-1.3 0.8,-3.8 0.6,-5.5l-0.3,-3l-20.2,-0.3l-20.3,-0.2l0,4.9z"/>
   <path fill="#4f46e5" id="svg_16" d="m716.776,23.85688c-12.8,6.9 -16,28.6 -5.8,40.5c3.2,3.7 5.1,4.9 10.6,6.6c6.6,2.1 6.8,2.1 13,0.3c6.9,-2 11.5,-5.6 15,-11.6c1.9,-3.2 2.2,-5.3 2.2,-13.8c0,-8.7 -0.3,-10.4 -2.4,-13.7c-2.6,-4.1 -4.5,-5.9 -9.3,-8.5c-4.5,-2.5 -18.5,-2.4 -23.3,0.2zm19.3,10.8c3.7,3.6 3.7,3.7 3.7,11.7c-0.1,7.4 -0.3,8.4 -3,11.6c-2.6,3.1 -3.4,3.5 -7.8,3.5c-6.9,0 -9.8,-2.8 -10.8,-10.1c-1,-8.2 0.2,-13.6 3.8,-17.2c4.4,-4.6 9.2,-4.5 14.1,0.5z"/>
   <path fill="#4f46e5" id="svg_17" d="m393.27599,33.95688c-0.9,1.4 0.8,4 4.9,7.7c4,3.7 5.1,4 6,1.7c0.4,-1 -0.8,-3.2 -3.2,-5.9c-3.6,-4.3 -6.4,-5.6 -7.7,-3.5z"/>
   <path fill="#4f46e5" id="svg_18" d="m443.77599,36.55688c-3.8,3.5 -5.3,7.5 -3.1,8.8c0.4,0.3 3.2,-1.7 6,-4.5c4.2,-4.1 5,-5.3 4,-6.5c-1.7,-2 -2.5,-1.8 -6.9,2.2z"/>
   <path fill="#4f46e5" id="svg_19" d="m463.97599,45.15688c-2.2,2.2 -1.2,3.5 4.8,6.1c3.6,1.6 6,3.3 6,4.2c0,1.7 -5.6,5.5 -8.2,5.5c-1.9,0 -4.2,3.5 -3.3,5c1.3,2.1 6.9,0.3 13.2,-4.1c5.7,-4 4.4,-11 -2.8,-14.5c-6.3,-3.1 -8.3,-3.6 -9.7,-2.2z"/>
   <path fill="#4f46e5" id="svg_20" d="m372.27599,47.05688c-7.7,4 -9.5,9.1 -4.9,13.4c9.4,8.7 36.4,12.8 70,10.5c15.4,-1.1 18.9,-1.6 20.7,-3.1c2,-1.8 2.1,-2 0.5,-3.2c-1.3,-1 -3.1,-1.1 -7,-0.5c-15,2.4 -32.2,3.2 -43.6,2c-15.5,-1.5 -30.1,-4.5 -35,-7.1c-3.2,-1.7 -2.5,-5.2 1.3,-7c6.3,-2.8 7.7,-4.1 6.4,-5.7c-1.6,-1.9 -3.7,-1.8 -8.4,0.7z"/>
   <path fill="#4f46e5" id="svg_21" d="m484.47599,54.35688c-0.3,0.7 -0.3,3.1 0,5.3c0.5,3.7 0.2,4.3 -2.9,6.6c-3.9,3 -11.2,5.8 -21.8,8.3c-6.3,1.5 -12.6,1.8 -38,1.9c-16.8,0 -30.4,0.4 -30.3,0.8c0.1,0.4 0.3,1.2 0.5,1.8c1.1,3.3 46.1,3.6 65.8,0.5c24.3,-3.8 35.9,-12.9 30.8,-24.1c-1.2,-2.7 -3.3,-3.3 -4.1,-1.1z"/>
   <path fill="#4f46e5" id="svg_22" d="m356.47599,54.55688c-0.4,0.4 -0.7,3 -0.7,5.9c0,4.4 0.4,5.6 3.1,8.3c3.9,4 11.1,7.3 16.4,7.5c6.4,0.3 5,-2.2 -3,-5.5c-9.7,-4 -11.7,-6.1 -11.3,-11.8c0.3,-3.9 0,-4.5 -1.7,-4.8c-1.2,-0.2 -2.4,0 -2.8,0.4z"/>
   <path fill="#4f46e5" id="svg_23" d="m346.97599,58.15688c-0.7,0.7 -1.2,3.7 -1.2,6.8c0,4.7 0.5,6.3 3.1,9.8c1.7,2.3 3.5,4.2 3.9,4.2c0.5,0 1.5,0.6 2.2,1.2c1.7,1.6 7.5,4.5 10.8,5.3c1.4,0.3 3.4,1 4.5,1.5c1.1,0.5 5.6,1.6 10,2.5c10.3,2.1 58.6,3.4 63.5,1.7c1.8,-0.7 3.9,-0.8 4.6,-0.4c2.4,1.3 19.1,-1.3 29.4,-4.7c14.9,-4.9 22,-11.7 22,-20.9c0,-3.6 -0.5,-5.4 -1.9,-6.6c-2.9,-2.6 -4.1,-1.1 -4.1,5c0,3.1 -0.4,6.4 -1,7.4c-3,5.6 -20.9,12.7 -34.6,13.7c-5.6,0.4 -8.2,1.1 -9.5,2.4c-1.4,1.4 -2.4,1.7 -4.3,0.9c-1.3,-0.5 -10.4,-0.9 -20.3,-0.8c-34.8,0.1 -60.2,-5 -69,-13.9c-4.5,-4.4 -5.3,-7.5 -3.2,-11.5c0.9,-1.8 0.8,-2.4 -0.7,-3.5c-2.2,-1.6 -2.7,-1.6 -4.2,-0.1z"/>
   <path fill="#4f46e5" id="svg_24" d="m383.47599,74.65689c-0.4,0.3 -0.7,1.5 -0.7,2.5c0,1.3 0.8,1.8 3,1.8c3.5,0 4.1,-2.3 1.1,-4c-2.3,-1.2 -2.6,-1.2 -3.4,-0.3z"/>
  </g>
 </g>
</svg>